<svg xmlns="http://www.w3.org/2000/svg" version="1.1" xmlns:xlink="http://www.w3.org/1999/xlink" width="1000" height="1000"><style>
    #light-icon {
      display: inline;
    }
    #dark-icon {
      display: none;
    }

    @media (prefers-color-scheme: dark) {
      #light-icon {
        display: none;
      }
      #dark-icon {
        display: inline;
      }
    }
  </style><g id="light-icon"><svg xmlns="http://www.w3.org/2000/svg" version="1.1" xmlns:xlink="http://www.w3.org/1999/xlink" width="1000" height="1000"><g clip-path="url(#SvgjsClipPath1482)"><rect width="1000" height="1000" fill="#ffffff"></rect><g transform="matrix(4.712041884816754,0,0,4.712041884816754,49.99999999999994,368.0628272251309)"><svg xmlns="http://www.w3.org/2000/svg" version="1.1" xmlns:xlink="http://www.w3.org/1999/xlink" width="191" height="56"><svg width="191" height="56" viewBox="0 0 191 56" fill="none" xmlns="http://www.w3.org/2000/svg">
<circle cx="28" cy="28" r="28" fill="black"></circle>
<circle cx="24.5" cy="31.5" r="23.5" fill="#B50045"></circle>
<circle cx="52.5" cy="17.5" r="17.5" fill="#B50045"></circle>
<circle cx="46" cy="22" r="19" fill="black"></circle>
<path d="M101.832 29.9922H104.861L103.916 27.2852C103.859 27.1204 103.766 26.859 103.637 26.501C103.515 26.1357 103.429 25.8815 103.379 25.7383H103.314C103.014 26.6191 102.838 27.1348 102.788 27.2852L101.832 29.9922ZM99.8125 33L102.82 24.9541H103.873L106.881 33H105.936L105.119 30.6797H101.574L100.758 33H99.8125ZM110.082 28.9824C110.082 27.7363 110.394 26.723 111.017 25.9424C111.647 25.1546 112.503 24.7607 113.584 24.7607C113.949 24.7607 114.289 24.818 114.604 24.9326C114.92 25.04 115.181 25.1868 115.389 25.373C115.604 25.5592 115.779 25.7419 115.915 25.9209C116.058 26.0928 116.176 26.2754 116.27 26.4688L115.539 26.7266C115.031 25.903 114.379 25.4912 113.584 25.4912C112.76 25.4912 112.116 25.8135 111.65 26.458C111.192 27.0954 110.963 27.9368 110.963 28.9824C110.963 30.071 111.199 30.9232 111.672 31.5391C112.145 32.1478 112.768 32.4521 113.541 32.4521C114.243 32.4521 114.784 32.223 115.163 31.7646C115.543 31.3063 115.732 30.7656 115.732 30.1426V29.3906H113.455V28.6602H116.57V33H115.947L115.883 31.8184C115.46 32.735 114.673 33.1934 113.52 33.1934C112.495 33.1934 111.665 32.8174 111.027 32.0654C110.397 31.3135 110.082 30.2858 110.082 28.9824ZM118.182 33V27.2207H118.977V28.0586C119.091 27.8008 119.281 27.5645 119.546 27.3496C119.811 27.1348 120.151 27.0273 120.566 27.0273C120.874 27.0273 121.146 27.0775 121.383 27.1777V27.9297C121.125 27.8294 120.853 27.7793 120.566 27.7793C120.079 27.7793 119.7 27.9619 119.428 28.3271C119.156 28.6924 119.02 29.1758 119.02 29.7773V33H118.182ZM121.823 30.0674C121.823 29.165 122.067 28.4346 122.554 27.876C123.041 27.3102 123.671 27.0273 124.444 27.0273C125.232 27.0273 125.852 27.3031 126.303 27.8545C126.754 28.3988 126.979 29.097 126.979 29.9492C126.979 30.0495 126.972 30.1927 126.958 30.3789H122.661C122.661 30.959 122.822 31.4567 123.145 31.8721C123.467 32.2874 123.914 32.4951 124.487 32.4951C124.86 32.4951 125.189 32.4092 125.476 32.2373C125.762 32.0583 125.984 31.8219 126.142 31.5283L126.851 31.7432C126.672 32.1657 126.382 32.513 125.98 32.7852C125.579 33.0573 125.082 33.1934 124.487 33.1934C123.685 33.1934 123.041 32.9069 122.554 32.334C122.067 31.7611 121.823 31.0055 121.823 30.0674ZM122.683 29.7451H126.142C126.142 29.1794 125.988 28.7031 125.68 28.3164C125.372 27.9225 124.96 27.7256 124.444 27.7256C123.922 27.7256 123.499 27.9261 123.177 28.3271C122.862 28.7282 122.697 29.2008 122.683 29.7451ZM128.72 31.5176C128.72 31.7897 128.834 32.0225 129.063 32.2158C129.293 32.402 129.608 32.4951 130.009 32.4951C130.517 32.4951 130.951 32.3304 131.309 32.001C131.674 31.6715 131.856 31.2526 131.856 30.7441V29.9385C131.541 30.0173 131.04 30.1104 130.353 30.2178C129.794 30.318 129.382 30.472 129.117 30.6797C128.852 30.8874 128.72 31.1667 128.72 31.5176ZM127.882 31.582C127.882 30.5078 128.713 29.8418 130.374 29.584C131.119 29.4622 131.613 29.362 131.856 29.2832V28.9502C131.856 28.5921 131.728 28.2949 131.47 28.0586C131.212 27.8223 130.847 27.7041 130.374 27.7041C130.03 27.7041 129.697 27.7865 129.375 27.9512C129.06 28.1087 128.791 28.3236 128.569 28.5957L128.032 28.1445C128.319 27.8151 128.662 27.5465 129.063 27.3389C129.472 27.1312 129.901 27.0273 130.353 27.0273C131.899 27.0273 132.673 27.7829 132.673 29.2939V33H131.878V32.0547C131.763 32.3626 131.527 32.6312 131.169 32.8604C130.811 33.0824 130.388 33.1934 129.901 33.1934C129.264 33.1934 128.766 33.043 128.408 32.7422C128.057 32.4414 127.882 32.0547 127.882 31.582ZM133.693 27.9189V27.2207H134.703V25.373H135.541V27.2207H137.066V27.9189H135.541V31.3027C135.541 31.6608 135.609 31.915 135.745 32.0654C135.881 32.2158 136.1 32.291 136.4 32.291H137.066V33H136.293C135.233 33 134.703 32.4593 134.703 31.3779V27.9189H133.693ZM140.644 28.9824C140.644 27.6719 140.962 26.6406 141.6 25.8887C142.237 25.1367 143.064 24.7607 144.081 24.7607C144.711 24.7607 145.245 24.9362 145.682 25.2871C146.126 25.6309 146.459 26.0426 146.681 26.5225L145.95 26.7803C145.47 25.9209 144.84 25.4912 144.06 25.4912C143.286 25.4912 142.67 25.8099 142.212 26.4473C141.754 27.0775 141.524 27.9225 141.524 28.9824C141.524 30.0566 141.757 30.9053 142.223 31.5283C142.688 32.1442 143.3 32.4521 144.06 32.4521C144.539 32.4521 144.958 32.3197 145.316 32.0547C145.674 31.7826 145.943 31.4495 146.122 31.0557L146.896 31.3027C146.652 31.8255 146.298 32.2731 145.832 32.6455C145.367 33.0107 144.783 33.1934 144.081 33.1934C143.071 33.1934 142.244 32.821 141.6 32.0762C140.962 31.3242 140.644 30.293 140.644 28.9824ZM148.485 31.5176C148.485 31.7897 148.6 32.0225 148.829 32.2158C149.058 32.402 149.373 32.4951 149.774 32.4951C150.283 32.4951 150.716 32.3304 151.074 32.001C151.439 31.6715 151.622 31.2526 151.622 30.7441V29.9385C151.307 30.0173 150.806 30.1104 150.118 30.2178C149.56 30.318 149.148 30.472 148.883 30.6797C148.618 30.8874 148.485 31.1667 148.485 31.5176ZM147.647 31.582C147.647 30.5078 148.478 29.8418 150.14 29.584C150.884 29.4622 151.379 29.362 151.622 29.2832V28.9502C151.622 28.5921 151.493 28.2949 151.235 28.0586C150.978 27.8223 150.612 27.7041 150.14 27.7041C149.796 27.7041 149.463 27.7865 149.141 27.9512C148.826 28.1087 148.557 28.3236 148.335 28.5957L147.798 28.1445C148.084 27.8151 148.428 27.5465 148.829 27.3389C149.237 27.1312 149.667 27.0273 150.118 27.0273C151.665 27.0273 152.438 27.7829 152.438 29.2939V33H151.644V32.0547C151.529 32.3626 151.293 32.6312 150.935 32.8604C150.576 33.0824 150.154 33.1934 149.667 33.1934C149.03 33.1934 148.532 33.043 148.174 32.7422C147.823 32.4414 147.647 32.0547 147.647 31.582ZM154.104 33V27.2207H154.898V28.0586C155.013 27.8008 155.203 27.5645 155.468 27.3496C155.733 27.1348 156.073 27.0273 156.488 27.0273C156.796 27.0273 157.068 27.0775 157.305 27.1777V27.9297C157.047 27.8294 156.775 27.7793 156.488 27.7793C156.001 27.7793 155.622 27.9619 155.35 28.3271C155.077 28.6924 154.941 29.1758 154.941 29.7773V33H154.104ZM157.691 27.2207H158.615L159.464 30.8086C159.643 31.6322 159.747 32.1084 159.775 32.2373H159.818C159.854 32.0654 159.911 31.8184 159.99 31.4961C160.069 31.1738 160.123 30.9447 160.151 30.8086L161.032 27.2207H162.021L162.912 30.8516C162.941 30.9733 162.991 31.1846 163.062 31.4854C163.134 31.7861 163.191 32.0368 163.234 32.2373H163.277C163.299 32.1514 163.403 31.6751 163.589 30.8086L164.438 27.2207H165.361L163.771 33H162.729L161.859 29.5195C161.666 28.6458 161.562 28.1732 161.548 28.1016H161.505C161.333 28.9108 161.229 29.3835 161.193 29.5195L160.323 33H159.281L157.691 27.2207ZM166.64 31.5176C166.64 31.7897 166.754 32.0225 166.983 32.2158C167.213 32.402 167.528 32.4951 167.929 32.4951C168.437 32.4951 168.87 32.3304 169.229 32.001C169.594 31.6715 169.776 31.2526 169.776 30.7441V29.9385C169.461 30.0173 168.96 30.1104 168.272 30.2178C167.714 30.318 167.302 30.472 167.037 30.6797C166.772 30.8874 166.64 31.1667 166.64 31.5176ZM165.802 31.582C165.802 30.5078 166.632 29.8418 168.294 29.584C169.039 29.4622 169.533 29.362 169.776 29.2832V28.9502C169.776 28.5921 169.647 28.2949 169.39 28.0586C169.132 27.8223 168.767 27.7041 168.294 27.7041C167.95 27.7041 167.617 27.7865 167.295 27.9512C166.98 28.1087 166.711 28.3236 166.489 28.5957L165.952 28.1445C166.239 27.8151 166.582 27.5465 166.983 27.3389C167.392 27.1312 167.821 27.0273 168.272 27.0273C169.819 27.0273 170.593 27.7829 170.593 29.2939V33H169.798V32.0547C169.683 32.3626 169.447 32.6312 169.089 32.8604C168.731 33.0824 168.308 33.1934 167.821 33.1934C167.184 33.1934 166.686 33.043 166.328 32.7422C165.977 32.4414 165.802 32.0547 165.802 31.582ZM171.785 31.8613L172.408 31.4961C172.831 32.1621 173.404 32.4951 174.127 32.4951C174.564 32.4951 174.911 32.4163 175.169 32.2588C175.434 32.1012 175.566 31.8721 175.566 31.5713C175.566 31.4424 175.534 31.3278 175.47 31.2275C175.405 31.1201 175.334 31.0342 175.255 30.9697C175.183 30.8981 175.051 30.8229 174.857 30.7441C174.664 30.6582 174.503 30.5973 174.374 30.5615C174.252 30.5186 174.048 30.4505 173.762 30.3574C173.511 30.2786 173.296 30.1999 173.117 30.1211C172.938 30.0423 172.752 29.9385 172.559 29.8096C172.365 29.6735 172.215 29.5088 172.107 29.3154C172.007 29.1221 171.957 28.9001 171.957 28.6494C171.957 28.1696 172.15 27.7793 172.537 27.4785C172.924 27.1777 173.454 27.0273 174.127 27.0273C174.6 27.0273 175.033 27.1527 175.427 27.4033C175.821 27.654 176.104 27.9476 176.275 28.2842L175.717 28.6494C175.566 28.3988 175.348 28.1839 175.062 28.0049C174.782 27.8187 174.471 27.7256 174.127 27.7256C173.69 27.7256 173.357 27.8115 173.128 27.9834C172.906 28.1481 172.795 28.3737 172.795 28.6602C172.795 28.8249 172.838 28.9753 172.924 29.1113C173.01 29.2402 173.139 29.3548 173.311 29.4551C173.49 29.5482 173.651 29.6234 173.794 29.6807C173.944 29.7308 174.141 29.7952 174.385 29.874C174.592 29.9385 174.775 29.9993 174.933 30.0566C175.097 30.1139 175.276 30.1927 175.47 30.293C175.663 30.3932 175.824 30.5007 175.953 30.6152C176.082 30.7227 176.189 30.8623 176.275 31.0342C176.361 31.1989 176.404 31.3779 176.404 31.5713C176.404 32.0296 176.2 32.4163 175.792 32.7314C175.391 33.0394 174.836 33.1934 174.127 33.1934C173.611 33.1934 173.153 33.0788 172.752 32.8496C172.351 32.6133 172.029 32.2839 171.785 31.8613ZM177.704 33V24.6533H178.521V28.1553H178.542C178.685 27.8473 178.914 27.5824 179.229 27.3604C179.552 27.1383 179.917 27.0273 180.325 27.0273C181.571 27.0273 182.194 27.7721 182.194 29.2617V33H181.378V29.4014C181.378 28.2842 180.977 27.7256 180.175 27.7256C179.731 27.7256 179.344 27.9082 179.015 28.2734C178.685 28.6387 178.521 29.0719 178.521 29.5732V33H177.704Z" fill="black"></path>
<path d="M66.5842 44.8153C66.5368 44.2945 66.3261 43.8897 65.9521 43.6009C65.5827 43.3073 65.0548 43.1605 64.3683 43.1605C63.9137 43.1605 63.5349 43.2197 63.2319 43.3381C62.9289 43.4564 62.7016 43.6198 62.5501 43.8281C62.3986 44.0317 62.3204 44.2661 62.3157 44.5312C62.3062 44.7491 62.3488 44.9408 62.4435 45.1065C62.543 45.2723 62.685 45.419 62.8697 45.5469C63.0591 45.67 63.2863 45.7789 63.5515 45.8736C63.8166 45.9683 64.1149 46.0511 64.4464 46.1222L65.6964 46.4062C66.4161 46.5625 67.0505 46.7708 67.5998 47.0312C68.1538 47.2917 68.6178 47.6018 68.9918 47.9616C69.3706 48.3215 69.6571 48.7358 69.8512 49.2045C70.0453 49.6733 70.1448 50.1989 70.1495 50.7812C70.1448 51.6998 69.9128 52.4882 69.4535 53.1463C68.9942 53.8045 68.3337 54.3087 67.4719 54.6591C66.6149 55.0095 65.5804 55.1847 64.3683 55.1847C63.1514 55.1847 62.0908 55.0024 61.1864 54.6378C60.2821 54.2732 59.579 53.7192 59.0771 52.9759C58.5752 52.2325 58.3171 51.2926 58.3029 50.1562H61.6694C61.6978 50.625 61.8233 51.0156 62.0458 51.3281C62.2683 51.6406 62.5737 51.8774 62.962 52.0384C63.355 52.1993 63.8095 52.2798 64.3256 52.2798C64.7991 52.2798 65.2016 52.2159 65.533 52.0881C65.8692 51.9602 66.1272 51.7827 66.3072 51.5554C66.4871 51.3281 66.5794 51.0677 66.5842 50.7741C66.5794 50.4995 66.4942 50.2652 66.3285 50.071C66.1628 49.8722 65.9071 49.7017 65.5614 49.5597C65.2205 49.4129 64.7849 49.2779 64.2546 49.1548L62.7347 48.7997C61.4753 48.5109 60.4833 48.0445 59.7589 47.4006C59.0344 46.7519 58.6746 45.8759 58.6793 44.7727C58.6746 43.8731 58.9161 43.0848 59.4038 42.4077C59.8915 41.7306 60.5662 41.2027 61.4279 40.8239C62.2897 40.4451 63.2721 40.2557 64.3754 40.2557C65.5022 40.2557 66.48 40.4474 67.3086 40.831C68.1419 41.2098 68.7882 41.7424 69.2475 42.429C69.7068 43.1155 69.9412 43.911 69.9506 44.8153H66.5842ZM85.1282 45.7244H81.5771C81.5297 45.3598 81.4326 45.0308 81.2859 44.7372C81.1391 44.4437 80.945 44.1927 80.7035 43.9844C80.462 43.776 80.1755 43.6174 79.8441 43.5085C79.5174 43.3949 79.1552 43.3381 78.7575 43.3381C78.052 43.3381 77.4435 43.5109 76.9322 43.8565C76.4255 44.2022 76.0349 44.7017 75.7603 45.3551C75.4904 46.0085 75.3555 46.7992 75.3555 47.7273C75.3555 48.6932 75.4928 49.5028 75.7674 50.1562C76.0468 50.8049 76.4374 51.295 76.9393 51.6264C77.4459 51.9531 78.0449 52.1165 78.7362 52.1165C79.1244 52.1165 79.4772 52.0668 79.7944 51.9673C80.1164 51.8679 80.3981 51.7235 80.6396 51.5341C80.8858 51.34 81.087 51.1056 81.2433 50.831C81.4042 50.5516 81.5155 50.2367 81.5771 49.8864L85.1282 49.9077C85.0666 50.5516 84.8796 51.1861 84.5671 51.8111C84.2594 52.4361 83.8356 53.0066 83.2958 53.5227C82.756 54.0341 82.0979 54.4413 81.3214 54.7443C80.5496 55.0473 79.6642 55.1989 78.6651 55.1989C77.3488 55.1989 76.1699 54.91 75.1282 54.3324C74.0913 53.75 73.2721 52.9025 72.6708 51.7898C72.0695 50.6771 71.7688 49.3229 71.7688 47.7273C71.7688 46.1269 72.0742 44.7704 72.685 43.6577C73.2958 42.545 74.122 41.6998 75.1637 41.1222C76.2054 40.5445 77.3725 40.2557 78.6651 40.2557C79.5458 40.2557 80.3602 40.3788 81.1083 40.625C81.8564 40.8665 82.5146 41.2216 83.0827 41.6903C83.6509 42.1544 84.1126 42.7249 84.4677 43.402C84.8228 44.0791 85.043 44.8532 85.1282 45.7244ZM87.1399 55V40.4545H93.1484C94.2375 40.4545 95.1773 40.651 95.968 41.044C96.7635 41.4323 97.3767 41.991 97.8075 42.7202C98.2384 43.4446 98.4538 44.304 98.4538 45.2983C98.4538 46.3068 98.2337 47.1638 97.7933 47.8693C97.353 48.5701 96.728 49.1051 95.9183 49.4744C95.1087 49.839 94.1499 50.0213 93.0419 50.0213H89.2422V47.2514H92.3885C92.9188 47.2514 93.3615 47.1828 93.7166 47.0455C94.0765 46.9034 94.3487 46.6903 94.5334 46.4062C94.718 46.1174 94.8104 45.7481 94.8104 45.2983C94.8104 44.8485 94.718 44.4768 94.5334 44.1832C94.3487 43.8849 94.0765 43.6624 93.7166 43.5156C93.3568 43.3641 92.9141 43.2884 92.3885 43.2884H90.6555V55H87.1399ZM95.3288 48.3523L98.951 55H95.1158L91.5646 48.3523H95.3288ZM109.182 40.4545H112.69V49.8366C112.69 50.9209 112.432 51.8655 111.916 52.6705C111.4 53.4706 110.68 54.0909 109.757 54.5312C108.834 54.9669 107.761 55.1847 106.54 55.1847C105.304 55.1847 104.224 54.9669 103.301 54.5312C102.378 54.0909 101.661 53.4706 101.149 52.6705C100.638 51.8655 100.382 50.9209 100.382 49.8366V40.4545H103.898V49.5312C103.898 50.0331 104.007 50.4806 104.224 50.8736C104.447 51.2666 104.757 51.5743 105.155 51.7969C105.553 52.0194 106.014 52.1307 106.54 52.1307C107.065 52.1307 107.525 52.0194 107.918 51.7969C108.315 51.5743 108.625 51.2666 108.848 50.8736C109.071 50.4806 109.182 50.0331 109.182 49.5312V40.4545ZM114.894 55V40.4545H120.959C122.048 40.4545 122.96 40.6084 123.694 40.9162C124.432 41.224 124.986 41.6548 125.355 42.2088C125.73 42.7628 125.917 43.4044 125.917 44.1335C125.917 44.6875 125.801 45.1823 125.569 45.6179C125.337 46.0488 125.017 46.4062 124.61 46.6903C124.203 46.9744 123.731 47.1733 123.196 47.2869V47.429C123.783 47.4574 124.326 47.616 124.823 47.9048C125.325 48.1937 125.727 48.5961 126.03 49.1122C126.333 49.6236 126.485 50.2296 126.485 50.9304C126.485 51.7116 126.286 52.41 125.888 53.0256C125.49 53.6364 124.915 54.1193 124.162 54.4744C123.409 54.8248 122.496 55 121.421 55H114.894ZM118.409 52.1662H120.583C121.345 52.1662 121.906 52.0218 122.266 51.733C122.631 51.4441 122.813 51.0417 122.813 50.5256C122.813 50.1515 122.725 49.8295 122.55 49.5597C122.375 49.285 122.126 49.0743 121.804 48.9276C121.482 48.776 121.096 48.7003 120.647 48.7003H118.409V52.1662ZM118.409 46.4347H120.355C120.739 46.4347 121.08 46.3707 121.378 46.2429C121.676 46.1151 121.908 45.9304 122.074 45.6889C122.245 45.4474 122.33 45.1562 122.33 44.8153C122.33 44.3277 122.157 43.9441 121.811 43.6648C121.466 43.3854 120.999 43.2457 120.412 43.2457H118.409V46.4347ZM148.981 55H143.605V40.4545H148.974C150.456 40.4545 151.732 40.7457 152.802 41.3281C153.877 41.9058 154.706 42.7391 155.288 43.8281C155.87 44.9124 156.162 46.2098 156.162 47.7202C156.162 49.2353 155.87 50.5374 155.288 51.6264C154.71 52.7154 153.884 53.5511 152.809 54.1335C151.734 54.7112 150.458 55 148.981 55ZM147.12 52.0028H148.846C149.661 52.0028 150.35 51.8655 150.913 51.5909C151.481 51.3116 151.91 50.8594 152.199 50.2344C152.492 49.6046 152.639 48.7666 152.639 47.7202C152.639 46.6738 152.492 45.8404 152.199 45.2202C151.905 44.5952 151.472 44.1454 150.899 43.8707C150.331 43.5914 149.63 43.4517 148.797 43.4517H147.12V52.0028ZM167.014 40.4545H170.522V49.8366C170.522 50.9209 170.264 51.8655 169.748 52.6705C169.232 53.4706 168.512 54.0909 167.589 54.5312C166.666 54.9669 165.593 55.1847 164.372 55.1847C163.136 55.1847 162.056 54.9669 161.133 54.5312C160.21 54.0909 159.493 53.4706 158.981 52.6705C158.47 51.8655 158.214 50.9209 158.214 49.8366V40.4545H161.73V49.5312C161.73 50.0331 161.839 50.4806 162.056 50.8736C162.279 51.2666 162.589 51.5743 162.987 51.7969C163.385 52.0194 163.846 52.1307 164.372 52.1307C164.897 52.1307 165.357 52.0194 165.75 51.7969C166.147 51.5743 166.458 51.2666 166.68 50.8736C166.903 50.4806 167.014 50.0331 167.014 49.5312V40.4545ZM172.726 55V40.4545H178.791C179.88 40.4545 180.792 40.6084 181.526 40.9162C182.264 41.224 182.818 41.6548 183.188 42.2088C183.562 42.7628 183.749 43.4044 183.749 44.1335C183.749 44.6875 183.633 45.1823 183.401 45.6179C183.169 46.0488 182.849 46.4062 182.442 46.6903C182.035 46.9744 181.563 47.1733 181.028 47.2869V47.429C181.616 47.4574 182.158 47.616 182.655 47.9048C183.157 48.1937 183.559 48.5961 183.862 49.1122C184.165 49.6236 184.317 50.2296 184.317 50.9304C184.317 51.7116 184.118 52.41 183.72 53.0256C183.322 53.6364 182.747 54.1193 181.994 54.4744C181.241 54.8248 180.328 55 179.253 55H172.726ZM176.241 52.1662H178.415C179.177 52.1662 179.738 52.0218 180.098 51.733C180.463 51.4441 180.645 51.0417 180.645 50.5256C180.645 50.1515 180.557 49.8295 180.382 49.5597C180.207 49.285 179.958 49.0743 179.636 48.9276C179.314 48.776 178.929 48.7003 178.479 48.7003H176.241V52.1662ZM176.241 46.4347H178.188C178.571 46.4347 178.912 46.3707 179.21 46.2429C179.509 46.1151 179.741 45.9304 179.906 45.6889C180.077 45.4474 180.162 45.1562 180.162 44.8153C180.162 44.3277 179.989 43.9441 179.643 43.6648C179.298 43.3854 178.831 43.2457 178.244 43.2457H176.241V46.4347ZM187.96 55.206C187.449 55.206 187.011 55.026 186.646 54.6662C186.286 54.3063 186.109 53.8707 186.114 53.3594C186.109 52.8575 186.286 52.429 186.646 52.0739C187.011 51.714 187.449 51.5341 187.96 51.5341C188.443 51.5341 188.869 51.714 189.239 52.0739C189.613 52.429 189.802 52.8575 189.807 53.3594C189.802 53.7003 189.712 54.0104 189.537 54.2898C189.366 54.5691 189.142 54.7917 188.862 54.9574C188.588 55.1231 188.287 55.206 187.96 55.206Z" fill="black"></path>
<path d="M131.321 55H127.543L132.451 40.4545H137.131L142.039 55H138.26L134.844 44.1193H134.73L131.321 55ZM130.817 49.2756H138.715V51.946H130.817V49.2756Z" fill="#B50045"></path>
</svg></svg></g></g><defs><clipPath id="SvgjsClipPath1482"><rect width="1000" height="1000" x="0" y="0" rx="0" ry="0"></rect></clipPath></defs></svg></g><g id="dark-icon"><svg xmlns="http://www.w3.org/2000/svg" version="1.1" xmlns:xlink="http://www.w3.org/1999/xlink" width="1000" height="1000"><g clip-path="url(#SvgjsClipPath1483)"><rect width="1000" height="1000" fill="#ffffff"></rect><g transform="matrix(4.18848167539267,0,0,4.18848167539267,100,382.72251308900525)"><svg xmlns="http://www.w3.org/2000/svg" version="1.1" xmlns:xlink="http://www.w3.org/1999/xlink" width="191" height="56"><svg width="191" height="56" viewBox="0 0 191 56" fill="none" xmlns="http://www.w3.org/2000/svg">
<circle cx="28" cy="28" r="28" fill="black"></circle>
<circle cx="24.5" cy="31.5" r="23.5" fill="#B50045"></circle>
<circle cx="52.5" cy="17.5" r="17.5" fill="#B50045"></circle>
<circle cx="46" cy="22" r="19" fill="black"></circle>
<path d="M101.832 29.9922H104.861L103.916 27.2852C103.859 27.1204 103.766 26.859 103.637 26.501C103.515 26.1357 103.429 25.8815 103.379 25.7383H103.314C103.014 26.6191 102.838 27.1348 102.788 27.2852L101.832 29.9922ZM99.8125 33L102.82 24.9541H103.873L106.881 33H105.936L105.119 30.6797H101.574L100.758 33H99.8125ZM110.082 28.9824C110.082 27.7363 110.394 26.723 111.017 25.9424C111.647 25.1546 112.503 24.7607 113.584 24.7607C113.949 24.7607 114.289 24.818 114.604 24.9326C114.92 25.04 115.181 25.1868 115.389 25.373C115.604 25.5592 115.779 25.7419 115.915 25.9209C116.058 26.0928 116.176 26.2754 116.27 26.4688L115.539 26.7266C115.031 25.903 114.379 25.4912 113.584 25.4912C112.76 25.4912 112.116 25.8135 111.65 26.458C111.192 27.0954 110.963 27.9368 110.963 28.9824C110.963 30.071 111.199 30.9232 111.672 31.5391C112.145 32.1478 112.768 32.4521 113.541 32.4521C114.243 32.4521 114.784 32.223 115.163 31.7646C115.543 31.3063 115.732 30.7656 115.732 30.1426V29.3906H113.455V28.6602H116.57V33H115.947L115.883 31.8184C115.46 32.735 114.673 33.1934 113.52 33.1934C112.495 33.1934 111.665 32.8174 111.027 32.0654C110.397 31.3135 110.082 30.2858 110.082 28.9824ZM118.182 33V27.2207H118.977V28.0586C119.091 27.8008 119.281 27.5645 119.546 27.3496C119.811 27.1348 120.151 27.0273 120.566 27.0273C120.874 27.0273 121.146 27.0775 121.383 27.1777V27.9297C121.125 27.8294 120.853 27.7793 120.566 27.7793C120.079 27.7793 119.7 27.9619 119.428 28.3271C119.156 28.6924 119.02 29.1758 119.02 29.7773V33H118.182ZM121.823 30.0674C121.823 29.165 122.067 28.4346 122.554 27.876C123.041 27.3102 123.671 27.0273 124.444 27.0273C125.232 27.0273 125.852 27.3031 126.303 27.8545C126.754 28.3988 126.979 29.097 126.979 29.9492C126.979 30.0495 126.972 30.1927 126.958 30.3789H122.661C122.661 30.959 122.822 31.4567 123.145 31.8721C123.467 32.2874 123.914 32.4951 124.487 32.4951C124.86 32.4951 125.189 32.4092 125.476 32.2373C125.762 32.0583 125.984 31.8219 126.142 31.5283L126.851 31.7432C126.672 32.1657 126.382 32.513 125.98 32.7852C125.579 33.0573 125.082 33.1934 124.487 33.1934C123.685 33.1934 123.041 32.9069 122.554 32.334C122.067 31.7611 121.823 31.0055 121.823 30.0674ZM122.683 29.7451H126.142C126.142 29.1794 125.988 28.7031 125.68 28.3164C125.372 27.9225 124.96 27.7256 124.444 27.7256C123.922 27.7256 123.499 27.9261 123.177 28.3271C122.862 28.7282 122.697 29.2008 122.683 29.7451ZM128.72 31.5176C128.72 31.7897 128.834 32.0225 129.063 32.2158C129.293 32.402 129.608 32.4951 130.009 32.4951C130.517 32.4951 130.951 32.3304 131.309 32.001C131.674 31.6715 131.856 31.2526 131.856 30.7441V29.9385C131.541 30.0173 131.04 30.1104 130.353 30.2178C129.794 30.318 129.382 30.472 129.117 30.6797C128.852 30.8874 128.72 31.1667 128.72 31.5176ZM127.882 31.582C127.882 30.5078 128.713 29.8418 130.374 29.584C131.119 29.4622 131.613 29.362 131.856 29.2832V28.9502C131.856 28.5921 131.728 28.2949 131.47 28.0586C131.212 27.8223 130.847 27.7041 130.374 27.7041C130.03 27.7041 129.697 27.7865 129.375 27.9512C129.06 28.1087 128.791 28.3236 128.569 28.5957L128.032 28.1445C128.319 27.8151 128.662 27.5465 129.063 27.3389C129.472 27.1312 129.901 27.0273 130.353 27.0273C131.899 27.0273 132.673 27.7829 132.673 29.2939V33H131.878V32.0547C131.763 32.3626 131.527 32.6312 131.169 32.8604C130.811 33.0824 130.388 33.1934 129.901 33.1934C129.264 33.1934 128.766 33.043 128.408 32.7422C128.057 32.4414 127.882 32.0547 127.882 31.582ZM133.693 27.9189V27.2207H134.703V25.373H135.541V27.2207H137.066V27.9189H135.541V31.3027C135.541 31.6608 135.609 31.915 135.745 32.0654C135.881 32.2158 136.1 32.291 136.4 32.291H137.066V33H136.293C135.233 33 134.703 32.4593 134.703 31.3779V27.9189H133.693ZM140.644 28.9824C140.644 27.6719 140.962 26.6406 141.6 25.8887C142.237 25.1367 143.064 24.7607 144.081 24.7607C144.711 24.7607 145.245 24.9362 145.682 25.2871C146.126 25.6309 146.459 26.0426 146.681 26.5225L145.95 26.7803C145.47 25.9209 144.84 25.4912 144.06 25.4912C143.286 25.4912 142.67 25.8099 142.212 26.4473C141.754 27.0775 141.524 27.9225 141.524 28.9824C141.524 30.0566 141.757 30.9053 142.223 31.5283C142.688 32.1442 143.3 32.4521 144.06 32.4521C144.539 32.4521 144.958 32.3197 145.316 32.0547C145.674 31.7826 145.943 31.4495 146.122 31.0557L146.896 31.3027C146.652 31.8255 146.298 32.2731 145.832 32.6455C145.367 33.0107 144.783 33.1934 144.081 33.1934C143.071 33.1934 142.244 32.821 141.6 32.0762C140.962 31.3242 140.644 30.293 140.644 28.9824ZM148.485 31.5176C148.485 31.7897 148.6 32.0225 148.829 32.2158C149.058 32.402 149.373 32.4951 149.774 32.4951C150.283 32.4951 150.716 32.3304 151.074 32.001C151.439 31.6715 151.622 31.2526 151.622 30.7441V29.9385C151.307 30.0173 150.806 30.1104 150.118 30.2178C149.56 30.318 149.148 30.472 148.883 30.6797C148.618 30.8874 148.485 31.1667 148.485 31.5176ZM147.647 31.582C147.647 30.5078 148.478 29.8418 150.14 29.584C150.884 29.4622 151.379 29.362 151.622 29.2832V28.9502C151.622 28.5921 151.493 28.2949 151.235 28.0586C150.978 27.8223 150.612 27.7041 150.14 27.7041C149.796 27.7041 149.463 27.7865 149.141 27.9512C148.826 28.1087 148.557 28.3236 148.335 28.5957L147.798 28.1445C148.084 27.8151 148.428 27.5465 148.829 27.3389C149.237 27.1312 149.667 27.0273 150.118 27.0273C151.665 27.0273 152.438 27.7829 152.438 29.2939V33H151.644V32.0547C151.529 32.3626 151.293 32.6312 150.935 32.8604C150.576 33.0824 150.154 33.1934 149.667 33.1934C149.03 33.1934 148.532 33.043 148.174 32.7422C147.823 32.4414 147.647 32.0547 147.647 31.582ZM154.104 33V27.2207H154.898V28.0586C155.013 27.8008 155.203 27.5645 155.468 27.3496C155.733 27.1348 156.073 27.0273 156.488 27.0273C156.796 27.0273 157.068 27.0775 157.305 27.1777V27.9297C157.047 27.8294 156.775 27.7793 156.488 27.7793C156.001 27.7793 155.622 27.9619 155.35 28.3271C155.077 28.6924 154.941 29.1758 154.941 29.7773V33H154.104ZM157.691 27.2207H158.615L159.464 30.8086C159.643 31.6322 159.747 32.1084 159.775 32.2373H159.818C159.854 32.0654 159.911 31.8184 159.99 31.4961C160.069 31.1738 160.123 30.9447 160.151 30.8086L161.032 27.2207H162.021L162.912 30.8516C162.941 30.9733 162.991 31.1846 163.062 31.4854C163.134 31.7861 163.191 32.0368 163.234 32.2373H163.277C163.299 32.1514 163.403 31.6751 163.589 30.8086L164.438 27.2207H165.361L163.771 33H162.729L161.859 29.5195C161.666 28.6458 161.562 28.1732 161.548 28.1016H161.505C161.333 28.9108 161.229 29.3835 161.193 29.5195L160.323 33H159.281L157.691 27.2207ZM166.64 31.5176C166.64 31.7897 166.754 32.0225 166.983 32.2158C167.213 32.402 167.528 32.4951 167.929 32.4951C168.437 32.4951 168.87 32.3304 169.229 32.001C169.594 31.6715 169.776 31.2526 169.776 30.7441V29.9385C169.461 30.0173 168.96 30.1104 168.272 30.2178C167.714 30.318 167.302 30.472 167.037 30.6797C166.772 30.8874 166.64 31.1667 166.64 31.5176ZM165.802 31.582C165.802 30.5078 166.632 29.8418 168.294 29.584C169.039 29.4622 169.533 29.362 169.776 29.2832V28.9502C169.776 28.5921 169.647 28.2949 169.39 28.0586C169.132 27.8223 168.767 27.7041 168.294 27.7041C167.95 27.7041 167.617 27.7865 167.295 27.9512C166.98 28.1087 166.711 28.3236 166.489 28.5957L165.952 28.1445C166.239 27.8151 166.582 27.5465 166.983 27.3389C167.392 27.1312 167.821 27.0273 168.272 27.0273C169.819 27.0273 170.593 27.7829 170.593 29.2939V33H169.798V32.0547C169.683 32.3626 169.447 32.6312 169.089 32.8604C168.731 33.0824 168.308 33.1934 167.821 33.1934C167.184 33.1934 166.686 33.043 166.328 32.7422C165.977 32.4414 165.802 32.0547 165.802 31.582ZM171.785 31.8613L172.408 31.4961C172.831 32.1621 173.404 32.4951 174.127 32.4951C174.564 32.4951 174.911 32.4163 175.169 32.2588C175.434 32.1012 175.566 31.8721 175.566 31.5713C175.566 31.4424 175.534 31.3278 175.47 31.2275C175.405 31.1201 175.334 31.0342 175.255 30.9697C175.183 30.8981 175.051 30.8229 174.857 30.7441C174.664 30.6582 174.503 30.5973 174.374 30.5615C174.252 30.5186 174.048 30.4505 173.762 30.3574C173.511 30.2786 173.296 30.1999 173.117 30.1211C172.938 30.0423 172.752 29.9385 172.559 29.8096C172.365 29.6735 172.215 29.5088 172.107 29.3154C172.007 29.1221 171.957 28.9001 171.957 28.6494C171.957 28.1696 172.15 27.7793 172.537 27.4785C172.924 27.1777 173.454 27.0273 174.127 27.0273C174.6 27.0273 175.033 27.1527 175.427 27.4033C175.821 27.654 176.104 27.9476 176.275 28.2842L175.717 28.6494C175.566 28.3988 175.348 28.1839 175.062 28.0049C174.782 27.8187 174.471 27.7256 174.127 27.7256C173.69 27.7256 173.357 27.8115 173.128 27.9834C172.906 28.1481 172.795 28.3737 172.795 28.6602C172.795 28.8249 172.838 28.9753 172.924 29.1113C173.01 29.2402 173.139 29.3548 173.311 29.4551C173.49 29.5482 173.651 29.6234 173.794 29.6807C173.944 29.7308 174.141 29.7952 174.385 29.874C174.592 29.9385 174.775 29.9993 174.933 30.0566C175.097 30.1139 175.276 30.1927 175.47 30.293C175.663 30.3932 175.824 30.5007 175.953 30.6152C176.082 30.7227 176.189 30.8623 176.275 31.0342C176.361 31.1989 176.404 31.3779 176.404 31.5713C176.404 32.0296 176.2 32.4163 175.792 32.7314C175.391 33.0394 174.836 33.1934 174.127 33.1934C173.611 33.1934 173.153 33.0788 172.752 32.8496C172.351 32.6133 172.029 32.2839 171.785 31.8613ZM177.704 33V24.6533H178.521V28.1553H178.542C178.685 27.8473 178.914 27.5824 179.229 27.3604C179.552 27.1383 179.917 27.0273 180.325 27.0273C181.571 27.0273 182.194 27.7721 182.194 29.2617V33H181.378V29.4014C181.378 28.2842 180.977 27.7256 180.175 27.7256C179.731 27.7256 179.344 27.9082 179.015 28.2734C178.685 28.6387 178.521 29.0719 178.521 29.5732V33H177.704Z" fill="black"></path>
<path d="M66.5842 44.8153C66.5368 44.2945 66.3261 43.8897 65.9521 43.6009C65.5827 43.3073 65.0548 43.1605 64.3683 43.1605C63.9137 43.1605 63.5349 43.2197 63.2319 43.3381C62.9289 43.4564 62.7016 43.6198 62.5501 43.8281C62.3986 44.0317 62.3204 44.2661 62.3157 44.5312C62.3062 44.7491 62.3488 44.9408 62.4435 45.1065C62.543 45.2723 62.685 45.419 62.8697 45.5469C63.0591 45.67 63.2863 45.7789 63.5515 45.8736C63.8166 45.9683 64.1149 46.0511 64.4464 46.1222L65.6964 46.4062C66.4161 46.5625 67.0505 46.7708 67.5998 47.0312C68.1538 47.2917 68.6178 47.6018 68.9918 47.9616C69.3706 48.3215 69.6571 48.7358 69.8512 49.2045C70.0453 49.6733 70.1448 50.1989 70.1495 50.7812C70.1448 51.6998 69.9128 52.4882 69.4535 53.1463C68.9942 53.8045 68.3337 54.3087 67.4719 54.6591C66.6149 55.0095 65.5804 55.1847 64.3683 55.1847C63.1514 55.1847 62.0908 55.0024 61.1864 54.6378C60.2821 54.2732 59.579 53.7192 59.0771 52.9759C58.5752 52.2325 58.3171 51.2926 58.3029 50.1562H61.6694C61.6978 50.625 61.8233 51.0156 62.0458 51.3281C62.2683 51.6406 62.5737 51.8774 62.962 52.0384C63.355 52.1993 63.8095 52.2798 64.3256 52.2798C64.7991 52.2798 65.2016 52.2159 65.533 52.0881C65.8692 51.9602 66.1272 51.7827 66.3072 51.5554C66.4871 51.3281 66.5794 51.0677 66.5842 50.7741C66.5794 50.4995 66.4942 50.2652 66.3285 50.071C66.1628 49.8722 65.9071 49.7017 65.5614 49.5597C65.2205 49.4129 64.7849 49.2779 64.2546 49.1548L62.7347 48.7997C61.4753 48.5109 60.4833 48.0445 59.7589 47.4006C59.0344 46.7519 58.6746 45.8759 58.6793 44.7727C58.6746 43.8731 58.9161 43.0848 59.4038 42.4077C59.8915 41.7306 60.5662 41.2027 61.4279 40.8239C62.2897 40.4451 63.2721 40.2557 64.3754 40.2557C65.5022 40.2557 66.48 40.4474 67.3086 40.831C68.1419 41.2098 68.7882 41.7424 69.2475 42.429C69.7068 43.1155 69.9412 43.911 69.9506 44.8153H66.5842ZM85.1282 45.7244H81.5771C81.5297 45.3598 81.4326 45.0308 81.2859 44.7372C81.1391 44.4437 80.945 44.1927 80.7035 43.9844C80.462 43.776 80.1755 43.6174 79.8441 43.5085C79.5174 43.3949 79.1552 43.3381 78.7575 43.3381C78.052 43.3381 77.4435 43.5109 76.9322 43.8565C76.4255 44.2022 76.0349 44.7017 75.7603 45.3551C75.4904 46.0085 75.3555 46.7992 75.3555 47.7273C75.3555 48.6932 75.4928 49.5028 75.7674 50.1562C76.0468 50.8049 76.4374 51.295 76.9393 51.6264C77.4459 51.9531 78.0449 52.1165 78.7362 52.1165C79.1244 52.1165 79.4772 52.0668 79.7944 51.9673C80.1164 51.8679 80.3981 51.7235 80.6396 51.5341C80.8858 51.34 81.087 51.1056 81.2433 50.831C81.4042 50.5516 81.5155 50.2367 81.5771 49.8864L85.1282 49.9077C85.0666 50.5516 84.8796 51.1861 84.5671 51.8111C84.2594 52.4361 83.8356 53.0066 83.2958 53.5227C82.756 54.0341 82.0979 54.4413 81.3214 54.7443C80.5496 55.0473 79.6642 55.1989 78.6651 55.1989C77.3488 55.1989 76.1699 54.91 75.1282 54.3324C74.0913 53.75 73.2721 52.9025 72.6708 51.7898C72.0695 50.6771 71.7688 49.3229 71.7688 47.7273C71.7688 46.1269 72.0742 44.7704 72.685 43.6577C73.2958 42.545 74.122 41.6998 75.1637 41.1222C76.2054 40.5445 77.3725 40.2557 78.6651 40.2557C79.5458 40.2557 80.3602 40.3788 81.1083 40.625C81.8564 40.8665 82.5146 41.2216 83.0827 41.6903C83.6509 42.1544 84.1126 42.7249 84.4677 43.402C84.8228 44.0791 85.043 44.8532 85.1282 45.7244ZM87.1399 55V40.4545H93.1484C94.2375 40.4545 95.1773 40.651 95.968 41.044C96.7635 41.4323 97.3767 41.991 97.8075 42.7202C98.2384 43.4446 98.4538 44.304 98.4538 45.2983C98.4538 46.3068 98.2337 47.1638 97.7933 47.8693C97.353 48.5701 96.728 49.1051 95.9183 49.4744C95.1087 49.839 94.1499 50.0213 93.0419 50.0213H89.2422V47.2514H92.3885C92.9188 47.2514 93.3615 47.1828 93.7166 47.0455C94.0765 46.9034 94.3487 46.6903 94.5334 46.4062C94.718 46.1174 94.8104 45.7481 94.8104 45.2983C94.8104 44.8485 94.718 44.4768 94.5334 44.1832C94.3487 43.8849 94.0765 43.6624 93.7166 43.5156C93.3568 43.3641 92.9141 43.2884 92.3885 43.2884H90.6555V55H87.1399ZM95.3288 48.3523L98.951 55H95.1158L91.5646 48.3523H95.3288ZM109.182 40.4545H112.69V49.8366C112.69 50.9209 112.432 51.8655 111.916 52.6705C111.4 53.4706 110.68 54.0909 109.757 54.5312C108.834 54.9669 107.761 55.1847 106.54 55.1847C105.304 55.1847 104.224 54.9669 103.301 54.5312C102.378 54.0909 101.661 53.4706 101.149 52.6705C100.638 51.8655 100.382 50.9209 100.382 49.8366V40.4545H103.898V49.5312C103.898 50.0331 104.007 50.4806 104.224 50.8736C104.447 51.2666 104.757 51.5743 105.155 51.7969C105.553 52.0194 106.014 52.1307 106.54 52.1307C107.065 52.1307 107.525 52.0194 107.918 51.7969C108.315 51.5743 108.625 51.2666 108.848 50.8736C109.071 50.4806 109.182 50.0331 109.182 49.5312V40.4545ZM114.894 55V40.4545H120.959C122.048 40.4545 122.96 40.6084 123.694 40.9162C124.432 41.224 124.986 41.6548 125.355 42.2088C125.73 42.7628 125.917 43.4044 125.917 44.1335C125.917 44.6875 125.801 45.1823 125.569 45.6179C125.337 46.0488 125.017 46.4062 124.61 46.6903C124.203 46.9744 123.731 47.1733 123.196 47.2869V47.429C123.783 47.4574 124.326 47.616 124.823 47.9048C125.325 48.1937 125.727 48.5961 126.03 49.1122C126.333 49.6236 126.485 50.2296 126.485 50.9304C126.485 51.7116 126.286 52.41 125.888 53.0256C125.49 53.6364 124.915 54.1193 124.162 54.4744C123.409 54.8248 122.496 55 121.421 55H114.894ZM118.409 52.1662H120.583C121.345 52.1662 121.906 52.0218 122.266 51.733C122.631 51.4441 122.813 51.0417 122.813 50.5256C122.813 50.1515 122.725 49.8295 122.55 49.5597C122.375 49.285 122.126 49.0743 121.804 48.9276C121.482 48.776 121.096 48.7003 120.647 48.7003H118.409V52.1662ZM118.409 46.4347H120.355C120.739 46.4347 121.08 46.3707 121.378 46.2429C121.676 46.1151 121.908 45.9304 122.074 45.6889C122.245 45.4474 122.33 45.1562 122.33 44.8153C122.33 44.3277 122.157 43.9441 121.811 43.6648C121.466 43.3854 120.999 43.2457 120.412 43.2457H118.409V46.4347ZM148.981 55H143.605V40.4545H148.974C150.456 40.4545 151.732 40.7457 152.802 41.3281C153.877 41.9058 154.706 42.7391 155.288 43.8281C155.87 44.9124 156.162 46.2098 156.162 47.7202C156.162 49.2353 155.87 50.5374 155.288 51.6264C154.71 52.7154 153.884 53.5511 152.809 54.1335C151.734 54.7112 150.458 55 148.981 55ZM147.12 52.0028H148.846C149.661 52.0028 150.35 51.8655 150.913 51.5909C151.481 51.3116 151.91 50.8594 152.199 50.2344C152.492 49.6046 152.639 48.7666 152.639 47.7202C152.639 46.6738 152.492 45.8404 152.199 45.2202C151.905 44.5952 151.472 44.1454 150.899 43.8707C150.331 43.5914 149.63 43.4517 148.797 43.4517H147.12V52.0028ZM167.014 40.4545H170.522V49.8366C170.522 50.9209 170.264 51.8655 169.748 52.6705C169.232 53.4706 168.512 54.0909 167.589 54.5312C166.666 54.9669 165.593 55.1847 164.372 55.1847C163.136 55.1847 162.056 54.9669 161.133 54.5312C160.21 54.0909 159.493 53.4706 158.981 52.6705C158.47 51.8655 158.214 50.9209 158.214 49.8366V40.4545H161.73V49.5312C161.73 50.0331 161.839 50.4806 162.056 50.8736C162.279 51.2666 162.589 51.5743 162.987 51.7969C163.385 52.0194 163.846 52.1307 164.372 52.1307C164.897 52.1307 165.357 52.0194 165.75 51.7969C166.147 51.5743 166.458 51.2666 166.68 50.8736C166.903 50.4806 167.014 50.0331 167.014 49.5312V40.4545ZM172.726 55V40.4545H178.791C179.88 40.4545 180.792 40.6084 181.526 40.9162C182.264 41.224 182.818 41.6548 183.188 42.2088C183.562 42.7628 183.749 43.4044 183.749 44.1335C183.749 44.6875 183.633 45.1823 183.401 45.6179C183.169 46.0488 182.849 46.4062 182.442 46.6903C182.035 46.9744 181.563 47.1733 181.028 47.2869V47.429C181.616 47.4574 182.158 47.616 182.655 47.9048C183.157 48.1937 183.559 48.5961 183.862 49.1122C184.165 49.6236 184.317 50.2296 184.317 50.9304C184.317 51.7116 184.118 52.41 183.72 53.0256C183.322 53.6364 182.747 54.1193 181.994 54.4744C181.241 54.8248 180.328 55 179.253 55H172.726ZM176.241 52.1662H178.415C179.177 52.1662 179.738 52.0218 180.098 51.733C180.463 51.4441 180.645 51.0417 180.645 50.5256C180.645 50.1515 180.557 49.8295 180.382 49.5597C180.207 49.285 179.958 49.0743 179.636 48.9276C179.314 48.776 178.929 48.7003 178.479 48.7003H176.241V52.1662ZM176.241 46.4347H178.188C178.571 46.4347 178.912 46.3707 179.21 46.2429C179.509 46.1151 179.741 45.9304 179.906 45.6889C180.077 45.4474 180.162 45.1562 180.162 44.8153C180.162 44.3277 179.989 43.9441 179.643 43.6648C179.298 43.3854 178.831 43.2457 178.244 43.2457H176.241V46.4347ZM187.96 55.206C187.449 55.206 187.011 55.026 186.646 54.6662C186.286 54.3063 186.109 53.8707 186.114 53.3594C186.109 52.8575 186.286 52.429 186.646 52.0739C187.011 51.714 187.449 51.5341 187.96 51.5341C188.443 51.5341 188.869 51.714 189.239 52.0739C189.613 52.429 189.802 52.8575 189.807 53.3594C189.802 53.7003 189.712 54.0104 189.537 54.2898C189.366 54.5691 189.142 54.7917 188.862 54.9574C188.588 55.1231 188.287 55.206 187.96 55.206Z" fill="black"></path>
<path d="M131.321 55H127.543L132.451 40.4545H137.131L142.039 55H138.26L134.844 44.1193H134.73L131.321 55ZM130.817 49.2756H138.715V51.946H130.817V49.2756Z" fill="#B50045"></path>
</svg></svg></g></g><defs><clipPath id="SvgjsClipPath1483"><rect width="1000" height="1000" x="0" y="0" rx="50" ry="50"></rect></clipPath></defs></svg></g></svg>